<svg width="36" height="36" viewBox="0 0 36 36" fill="none" xmlns="http://www.w3.org/2000/svg">
<g clip-path="url(#clip0_840_43)">
<path fill-rule="evenodd" clip-rule="evenodd" d="M0.699037 8.27469C0 10.2653 0 12.7423 0 17.6962V18.3038C0 23.2577 0 25.7347 0.699037 27.7253C1.94363 31.2694 4.7306 34.0564 8.27469 35.301C10.2653 36 12.7423 36 17.6962 36H18.3038C23.2577 36 25.7347 36 27.7253 35.301C31.2694 34.0564 34.0564 31.2694 35.301 27.7253C36 25.7347 36 23.2577 36 18.3038V17.6962C36 12.7423 36 10.2653 35.301 8.27469C34.0564 4.7306 31.2694 1.94363 27.7253 0.699037C25.7347 0 23.2577 0 18.3038 0H17.6962C12.7423 0 10.2653 0 8.27469 0.699037C4.7306 1.94363 1.94363 4.7306 0.699037 8.27469ZM13.1086 8.8539H8.37715V27H12.0985V15.1448H12.2491L16.9452 26.9114H19.4792L24.1752 15.1891H24.3259V27H28.0472V8.8539H23.3158L18.3185 21.0458H18.1059L13.1086 8.8539Z" fill="black"/>
</g>
<defs>
<clipPath id="clip0_840_43">
<rect width="36" height="36" fill="white"/>
</clipPath>
</defs>
<style>
  @media (prefers-color-scheme:dark){:root{filter:invert(100%)}}
</style>
</svg>
